<svg
  width="150"
  height="150"
  viewBox="0 0 150 150"
  fill="none"
  xmlns="http://www.w3.org/2000/svg"
>
  <rect width="150" height="150" rx="10" fill="black" />
  <path
    d="M64.177 98.912C58.6303 98.912 53.7663 97.5467 49.585 94.816C45.489 92 41.8197 88.288 38.577 83.68C35.3343 78.9867 32.2197 73.824 29.233 68.192L34.097 65.376C36.3157 69.3867 38.577 73.2693 40.881 77.024C43.2703 80.6933 46.001 83.7227 49.073 86.112C52.145 88.416 55.8997 89.568 60.337 89.568C63.153 89.568 65.7983 88.9707 68.273 87.776C70.833 86.496 72.9237 84.7467 74.545 82.528C76.1663 80.3093 76.977 77.7067 76.977 74.72C76.977 71.5627 75.9103 69.1733 73.777 67.552C71.729 65.9307 69.297 65.12 66.481 65.12C64.0917 65.12 61.617 65.632 59.057 66.656C56.497 67.5947 54.2357 68.5333 52.273 69.472L46.769 60.128C49.073 58.848 51.5903 57.696 54.321 56.672C57.137 55.648 59.9957 55.136 62.897 55.136C63.3237 55.136 63.7077 55.136 64.049 55.136C66.353 53.6853 68.1023 51.9787 69.297 50.016C70.4917 47.968 71.089 45.92 71.089 43.872C71.089 41.6533 70.4063 39.8187 69.041 38.368C67.6757 36.9173 65.4997 36.192 62.513 36.192C60.1237 36.192 57.0517 36.7893 53.297 37.984C49.5423 39.0933 45.9157 40.7573 42.417 42.976L36.785 33.376C40.5397 31.1573 44.2943 29.536 48.049 28.512C51.889 27.488 55.1743 26.976 57.905 26.976C61.8303 26.976 65.1583 27.8293 67.889 29.536C70.6197 31.1573 72.8383 33.248 74.545 35.808C76.2517 38.368 77.489 41.0133 78.257 43.744C79.1103 46.3893 79.537 48.736 79.537 50.784C79.537 52.1493 79.3237 53.6 78.897 55.136C78.4703 56.672 77.4463 58.336 75.825 60.128C76.337 60.5547 76.8917 61.152 77.489 61.92C78.9397 63.5413 80.6037 64.992 82.481 66.272C84.4437 67.552 87.3023 68.192 91.057 68.192C95.7503 68.192 99.7183 66.784 102.961 63.968L103.217 38.24H89.521L85.169 29.92V28.64H124.593L128.945 36.96V38.24H113.969L114.225 109.28H112.945L102.705 102.624L102.833 76.896C102.15 77.152 101.425 77.3227 100.657 77.408C99.889 77.4933 99.0783 77.536 98.225 77.536C95.8357 77.536 93.4463 77.1093 91.057 76.256C88.753 75.4027 86.7477 74.4213 85.041 73.312L84.529 73.568C85.041 74.7627 85.3823 76 85.553 77.28C85.809 78.4747 85.937 79.6267 85.937 80.736C85.937 84.2347 84.9557 87.3493 82.993 90.08C81.1157 92.8107 78.5557 94.9867 75.313 96.608C72.0703 98.144 68.3583 98.912 64.177 98.912Z"
    fill="white"
  />
</svg>
